<?xml version="1.0" encoding="UTF-8"?>
<svg version="1.1" viewBox="0 0 1600 1600" width="1280" height="1280" xmlns="http://www.w3.org/2000/svg">
<path transform="translate(426 333)" d="m0 0c5.69 0.00234 11.4 0.00255 17.1 0.00149 1.24-2.3e-4 1.24-2.3e-4 2.51-4.64e-4 1.68-3.2e-4 3.37-6.44e-4 5.05-9.73e-4 15.6-0.00282 31.2 3.68e-4 46.8 0.0058 13.2 0.00445 26.4 0.0037 39.6-9.19e-4 15.5-0.00544 31.1-0.00741 46.6-0.00439 1.68 3.18e-4 3.36 6.33e-4 5.04 9.43e-4 1.24 2.31e-4 1.24 2.31e-4 2.5 4.68e-4 5.63 8.38e-4 11.3-5.67e-4 16.9-0.00295 18.8-0.00697 37.6 0.0243 56.4 0.108 4.92 0.0213 9.84 0.0357 14.8 0.0465 8.77 0.0194 17.5 0.057 26.3 0.125 4.19 0.0321 8.39 0.0566 12.6 0.06 3.91 0.00359 7.81 0.031 11.7 0.0757 1.42 0.0124 2.85 0.0167 4.27 0.0116 13.1-0.0373 27.4 2.47 37.4 11.7v2c0.99 0.33 1.98 0.66 3 1v2c0.928 0.371 0.928 0.371 1.88 0.75 2.48 1.46 3.08 2.63 4.12 5.25h2c2.45 2.69 4.35 5.52 6.12 8.69 1.66 3.27 1.66 3.27 3.88 5.31 2.79 6.09 3.46 11.9 3.43 18.6 0.00524 0.878 0.0105 1.76 0.0159 2.66 0.00638 1.84 0.00514 3.69-0.00343 5.53-0.00853 2.8 0.0203 5.6 0.052 8.41 0.00161 1.8 0.00103 3.6-0.00195 5.4 0.0112 0.827 0.0225 1.65 0.034 2.51-0.0697 5.88-1.55 9.89-4.53 14.9-0.432 0.838-0.864 1.68-1.31 2.54-2.51 4.64-5.25 8.47-8.69 12.5-0.33 0.681-0.66 1.36-1 2.06-2.4 4.65-6.52 7.47-11 9.94-0.742 0.495-1.49 0.99-2.25 1.5-7.66 4.18-15.8 5.3-24.3 6.16-1.26 0.126-2.51 0.253-3.81 0.383-16.4 1.54-32.8 1.39-49.2 1.37-4.81-0.00273-9.62 0.012-14.4 0.0244-8.3 0.0192-16.6 0.028-24.9 0.0293-12 0.00206-24 0.0216-36.1 0.0454-19.5 0.0382-39.1 0.0641-58.6 0.0814-18.9 0.0168-37.8 0.037-56.7 0.0635-1.75 0.00245-1.75 0.00245-3.54 0.00495-12.8 0.018-25.5 0.0373-38.3 0.0583-1.12 0.00184-2.24 0.00368-3.4 0.00558-4.48 0.00738-8.97 0.0148-13.5 0.0223-13.1 0.0221-26.2 0.0399-39.3 0.05-8.2 0.0064-16.4 0.016-24.6 0.028-4.73 0.00676-9.45 0.0119-14.2 0.0126-4.33 6.73e-4 -8.67 0.0059-13 0.0146-1.56 0.00233-3.12 0.00301-4.68 0.0018-18.1-0.584-18.1-0.584-35.2 4.14-2.94 0.188-2.94 0.188-5 0-0.33 0.99-0.66 1.98-1 3-3.8 1.9-7.92 2.88-12 4-0.0825 0.619-0.165 1.24-0.25 1.88-0.75 2.12-0.75 2.12-2.5 3.06-0.743 0.351-1.49 0.701-2.25 1.06-2.89 2.61-5.02 5.03-7.12 8.31-0.928 1.33-0.928 1.33-1.88 2.69h-3c-0.33 2.31-0.66 4.62-1 7h-2c-0.458 1.59-0.914 3.17-1.36 4.76-0.446 1.57-0.903 3.13-1.37 4.69-1.82 6.29-2.93 12.3-3.44 18.8-0.0798 0.981-0.16 1.96-0.242 2.97-0.922 12.6-0.869 25.2-0.844 37.8 0.00515 3.71-0.00148 7.43-0.00649 11.1-0.00717 6.48-0.00704 13-0.00191 19.4 0.00761 9.64 0.00367 19.3-0.00242 28.9-0.0105 17.2-0.00963 34.4-0.00384 51.7 0.00504 15.1 0.00634 30.1 0.00395 45.2-1.53e-4 1-3.06e-4 2-4.63e-4 3.03-6.23e-4 4.07-0.00126 8.13-0.00192 12.2-0.00611 38.1-5.83e-4 76.2 0.0102 114 0.0095 33.8 0.00864 67.6-9.22e-4 101-0.0107 38-0.015 76.1-0.00878 114 6.41e-4 4.06 0.00127 8.11 0.00189 12.2 2.37e-4 1.5 2.37e-4 1.5 4.79e-4 3.03 0.00227 15.1-3.81e-4 30.1-0.00544 45.2-0.00572 17.1-0.00428 34.2 0.00656 51.4 0.00587 9.58 0.00627 19.2-0.00129 28.7-0.00449 6.4-0.00168 12.8 0.00701 19.2 0.00474 3.64 0.00641 7.29-8.12e-4 10.9-0.0796 20-0.0796 20 2.26 39.9 0.379 2.48 0.755 4.96 1.12 7.44 0.29 1.85 0.581 3.71 0.875 5.56 0.99 0.33 1.98 0.66 3 1 0.268 0.825 0.536 1.65 0.812 2.5 3.91 11.5 13.3 19.2 23.9 24.6 1.43 0.661 2.87 1.31 4.31 1.94v2c6.5 1.51 13 2.77 19.6 3.95 5.2 0.946 5.2 0.946 7.41 2.05 13.7 1.73 27.7 1.14 41.5 1.13 3.62-0.00256 7.24 7.31e-4 10.9 0.00324 6.34 0.0036 12.7 0.00351 19 9.53e-4 9.42-0.00379 18.8-0.00184 28.3 0.00121 16.8 0.00526 33.7 0.00481 50.5 0.00192 14.7-0.00252 29.5-0.00317 44.2-0.00198 0.979 7.64e-5 1.96 1.53e-4 2.97 2.31e-4 3.97 3.11e-4 7.95 6.3e-4 11.9 9.6e-4 37.3 0.00306 74.5 2.88e-4 112-0.0051 33.1-0.00474 66.1-0.00432 99.2 4.61e-4 37.2 0.00536 74.4 0.00747 112 0.00439 3.97-3.21e-4 7.94-6.34e-4 11.9-9.43e-4 1.47-1.19e-4 1.47-1.19e-4 2.96-2.4e-4 14.7-0.00114 29.4 1.88e-4 44.2 0.00272 16.8 0.00287 33.5 0.00213 50.3-0.00328 9.36-0.00292 18.7-0.00314 28.1 6.46e-4 6.27 0.00226 12.5 8.2e-4 18.8-0.0035 3.56-0.00236 7.12-0.00324 10.7 4.06e-4 12.8 0.0102 25.6-0.0326 38.4-0.513 0.925-0.0304 1.85-0.0607 2.8-0.092 5.1-0.226 9.43-0.976 14.3-2.53 1.64-0.155 1.64-0.155 3.31-0.312 6.89-1.29 15.4-5.27 20.3-10.4 1.38-1.31 1.38-1.31 4.38-1.31 0.268-0.639 0.536-1.28 0.812-1.94 1.19-2.06 1.19-2.06 4.19-3.06 0.33-0.99 0.66-1.98 1-3h2c0.103-0.639 0.206-1.28 0.312-1.94 0.227-0.681 0.454-1.36 0.688-2.06 0.99-0.33 1.98-0.66 3-1 1.13-2.8 1.13-2.8 2-6 0.33-0.804 0.66-1.61 1-2.44 1.11-2.73 1.11-2.73 2.06-6.31 0.938-3.25 0.938-3.25 1.94-4.25 0.375-2.65 0.706-5.28 1-7.94 0.867-7.8 0.867-7.8 2-10.1 0.0994-1.81 0.134-3.63 0.139-5.45 0.00821-1.75 0.00821-1.75 0.0166-3.53 9.78e-4 -1.29 0.00196-2.58 0.00296-3.91 0.00456-1.38 0.00956-2.75 0.015-4.13 0.0136-3.8 0.021-7.6 0.0274-11.4 0.00799-4.1 0.0217-8.19 0.0347-12.3 0.0247-8.05 0.044-16.1 0.0618-24.1 0.021-9.42 0.0474-18.8 0.0742-28.3 0.0478-16.9 0.091-33.8 0.131-50.7 0.039-16.3 0.0804-32.5 0.125-48.8 0.00409-1.49 0.00409-1.49 0.00826-3.01 0.011-3.99 0.0219-7.99 0.0329-12 0.0481-17.5 0.0944-35 0.14-52.5 0.00729-2.79 0.0146-5.57 0.0219-8.36 0.028-10.7 0.055-21.3 0.0807-32 0.00815-3.38 0.0166-6.76 0.0252-10.1 0.0419-16.5 0.073-32.9 0.043-49.4-0.00386-2.18-0.00714-4.36-0.0102-6.54-0.00205-1.41-0.00412-2.81-0.00621-4.22-0.00151-1.02-0.00151-1.02-0.00304-2.07-0.00732-4.53-0.0224-9.06-0.039-13.6-0.00444-2.32-0.00869-4.63-0.0127-6.95-0.00575-1.01-0.0115-2.03-0.0174-3.07-0.0126-18.4-0.0126-18.4 3.11-25.6 0.279-1.39 0.529-2.79 0.75-4.19 1.55-7.32 5.25-13.4 11.2-17.8 0.289-0.825 0.577-1.65 0.875-2.5 1.58-3.51 3.69-3.84 7.12-5.5 1.3-1.12 2.57-2.27 3.81-3.44 4.06-3.68 8.13-5.58 13.2-7.56 1.61-0.835 1.61-0.835 3.25-1.69 4.68-1.64 9.03-1.82 14-2 2.93-0.0292 2.93-0.0292 4.79-2.31 2.09-0.266 2.09-0.266 4.5-0.25 0.794-0.00516 1.59-0.0103 2.41-0.0156 2.09 0.266 2.09 0.266 4.09 2.27 2.04 0.101 4.08 0.13 6.12 0.125 11.7 0.671 22.2 6.56 30.7 14.4 1.19 1.45 1.19 1.45 1.19 3.45 0.99 0.33 1.98 0.66 3 1v2c0.99 0.33 1.98 0.66 3 1v2c0.619 0.289 1.24 0.578 1.88 0.875 3.59 1.9 4.54 3.83 5.75 7.56 0.26 0.782 0.521 1.56 0.789 2.37 0.586 2.19 0.586 2.19 0.586 5.19h2c4.24 14.3 4.15 28.9 4.13 43.7 0.00116 1.63 0.00275 3.26 0.00473 4.88 0.00414 4.43 0.00213 8.86-9.86e-4 13.3-0.00228 4.8 0.00124 9.59 0.00398 14.4 0.00443 9.38 0.00349 18.8 5.87e-4 28.1-0.00226 7.62-0.00256 15.2-0.00148 22.9 2.3e-4 1.63 2.3e-4 1.63 4.64e-4 3.29 3.2e-4 2.21 6.44e-4 4.41 9.73e-4 6.62 0.00285 20.7-4.21e-4 41.3-0.0058 62-0.00447 17.7-0.00369 35.5 9.19e-4 53.2 0.00535 20.6 0.00746 41.2 0.00439 61.8-3.19e-4 2.2-6.33e-4 4.39-9.43e-4 6.59-1.54e-4 1.08-3.09e-4 2.16-4.68e-4 3.27-8.63e-4 7.61 5.93e-4 15.2 0.00295 22.8 0.0028 9.27 0.00205 18.5-0.00328 27.8-0.00263 4.73-0.00366 9.46-3.51e-4 14.2 0.00298 4.33 0.00134 8.66-0.00398 13-0.00112 1.57-5.51e-4 3.13 0.00188 4.7 0.0216 15.1 0.0216 15.1-1.13 21.5-0.33 0.33-0.66 0.66-1 1-0.207 2.37-0.355 4.73-0.465 7.11-0.0786 1.47-0.157 2.95-0.236 4.42-0.119 2.33-0.236 4.65-0.348 6.98-0.11 2.24-0.231 4.49-0.353 6.73-0.0454 1.03-0.0454 1.03-0.0918 2.08-0.235 4.21-1.05 7.74-2.51 11.7-0.266 1.78-0.479 3.58-0.625 5.38-0.0748 0.874-0.15 1.75-0.227 2.65-0.049 0.652-0.098 1.3-0.148 1.98h-2c-0.33 2.97-0.66 5.94-1 9h-2c-0.33 2.97-0.66 5.94-1 9h-2c-0.18 1.31-0.18 1.31-0.363 2.64-1.56 8.22-5.4 15.6-10.3 22.3-1.48 2.25-2.41 4.51-3.33 7.04h-2c-0.103 0.743-0.206 1.48-0.312 2.25-0.737 2.95-1.64 4.53-3.69 6.75h-2c-0.0967 0.743-0.193 1.48-0.293 2.25-0.801 3.12-1.83 4.43-4.02 6.75-0.632 0.688-1.26 1.38-1.91 2.09-0.585 0.632-1.17 1.26-1.77 1.91-2.14 2.57-4.01 5.02-5.75 7.88-2.45 3.4-5.11 5.78-8.3 8.46-2.14 1.78-2.14 1.78-4.64 4.42-2.31 2.25-4.56 3.6-7.31 5.25-0.887 0.887-1.77 1.77-2.69 2.69l-2.31 2.31h-2v2c-1.69 2.12-1.69 2.12-4 4-2.75 0.25-2.75 0.25-5 0-0.33 0.99-0.66 1.98-1 3-2 1.78-3.75 2.9-6.25 3.88-4.77 1.95-8.98 4.96-13.3 7.79-8.15 5.18-8.15 5.18-13.5 4.34-0.33 0.99-0.66 1.98-1 3-1.92 0.186-1.92 0.186-3.88 0.375-3.47 0.315-3.47 0.315-6.12 2.62-2.62 0.125-2.62 0.125-5 0v2c-0.615 0.049-1.23 0.098-1.86 0.148-0.808 0.0748-1.62 0.15-2.45 0.227-0.801 0.0696-1.6 0.139-2.43 0.211-2.53 0.31-2.53 0.31-5.26 2.41-2.87 0.435-5.68 0.787-8.56 1.06-5.38 0.336-5.38 0.336-10.4 1.94-1.75 0.21-3.51 0.368-5.27 0.5-1.58 0.124-1.58 0.124-3.19 0.25-1.66 0.124-1.66 0.124-3.35 0.25-2.17 0.164-4.35 0.331-6.52 0.5-0.967 0.0722-1.93 0.144-2.93 0.219-2.69 0.224-2.69 0.224-5.07 0.791-2.76 0.508-5.29 0.615-8.1 0.616-1.63 0.00376-1.63 0.00376-3.29 0.00759-1.19-0.00234-2.38-0.00468-3.6-0.00709-1.27 0.00145-2.54 0.00291-3.85 0.0044-3.54 0.00391-7.09 0.00156-10.6-0.00178-3.85-0.00253-7.7 7.21e-4 -11.5 0.00324-6.75 0.00362-13.5 0.0035-20.3 9.53e-4 -10-0.00377-20.1-0.00185-30.1 0.00121-17.9 0.00527-35.8 0.00481-53.8 0.00192-15.7-0.00251-31.4-0.00317-47-0.00198-1.56 1.15e-4 -1.56 1.15e-4 -3.15 2.31e-4 -4.22 3.11e-4 -8.44 6.3e-4 -12.7 9.6e-4 -39.6 0.00306-79.2 2.83e-4 -119-0.0051-35.2-0.00475-70.4-0.00432-106 4.61e-4 -39.5 0.00535-79 0.00748-119 0.00439-4.21-3.21e-4 -8.42-6.34e-4 -12.6-9.43e-4 -1.04-7.91e-5 -2.07-1.58e-4 -3.14-2.4e-4 -15.7-0.00114-31.4 1.96e-4 -47 0.00272-17.8 0.00285-35.6 0.00216-53.5-0.00328-9.98-0.00295-20-0.00311-29.9 6.46e-4 -6.66 0.00223-13.3 8.66e-4 -20-0.0035-3.8-0.00239-7.6-0.00316-11.4 4.06e-4 -4.08 0.00379-8.16-3.99e-5 -12.2-0.00472-1.2 0.00234-2.39 0.00468-3.63 0.00709-1.08-0.0025-2.16-0.00501-3.27-0.00759-0.934-6.78e-5 -1.87-1.36e-4 -2.83-2.05e-4 -2.22-0.125-2.22-0.125-4.22-1.13-1.61-0.197-3.22-0.344-4.83-0.465-0.964-0.078-1.93-0.156-2.92-0.236-2.03-0.157-4.06-0.31-6.09-0.461-0.967-0.0793-1.93-0.159-2.93-0.24-0.883-0.067-1.77-0.134-2.68-0.203-2.76-0.426-4.99-1.32-7.56-2.39-1.93-0.276-3.87-0.484-5.81-0.625-0.976-0.0748-1.95-0.15-2.96-0.227-0.736-0.049-1.47-0.098-2.23-0.148v-2c-2.97-0.33-5.94-0.66-9-1v-2c-2.97-0.33-5.94-0.66-9-1v-2c-2.31-0.33-4.62-0.66-7-1v-2c-1.98-0.33-3.96-0.66-6-1v-2c-0.784-0.206-1.57-0.412-2.38-0.625-6.15-2.33-11.6-5.95-17-9.69-2.32-1.49-3.93-2.27-6.62-2.69v-2c-1.65-0.66-3.3-1.32-5-2v-2c-0.598-0.289-1.2-0.578-1.81-0.875-2.19-1.13-2.19-1.13-5.19-3.12v-2c-0.726-0.247-1.45-0.495-2.2-0.75-3.08-1.37-5.12-3-7.61-5.25-0.79-0.701-1.58-1.4-2.39-2.12-1.79-1.88-1.79-1.88-1.79-3.88-0.835-0.371-0.835-0.371-1.69-0.75-2.76-1.49-5-3.12-7.31-5.25-0.625-2.19-0.625-2.19-1-4-0.99-0.33-1.98-0.66-3-1-1.46-1.67-1.46-1.67-2.94-3.75-1.76-2.45-3.51-4.8-5.44-7.12-1.62-2.12-1.62-2.12-1.62-4.12-0.99-0.33-1.98-0.66-3-1-0.33-1.65-0.66-3.3-1-5h-2v-3c-0.99-0.33-1.98-0.66-3-1-1.72-2.73-1.72-2.73-3.5-6.19-0.588-1.13-1.18-2.26-1.78-3.42-0.567-1.12-1.13-2.24-1.72-3.39-0.851-1.63-0.851-1.63-1.72-3.3-1.28-2.7-1.28-2.7-1.28-4.7h-2v-2h-2c-0.268-1.11-0.536-2.23-0.812-3.38-1.69-6.72-3.58-13.3-6.25-19.7-1.67-4.03-2.74-7.94-3.54-12.2-0.24-1.74-0.24-1.74-1.39-2.71-0.375-2.65-0.706-5.28-1-7.94-0.406-5.19-0.406-5.19-2-10.1-1.12-10.5-1.16-21-1.19-31.6-0.00797-1.6-0.0164-3.2-0.0251-4.8-0.0179-3.41-0.033-6.83-0.0458-10.2-0.0204-5.41-0.0481-10.8-0.0767-16.2-0.0648-12.4-0.121-24.9-0.176-37.3-0.051-11.4-0.104-22.9-0.165-34.3-0.0282-5.37-0.0518-10.7-0.0719-16.1-0.0135-3.34-0.0309-6.69-0.0493-10-0.0077-1.54-0.0138-3.08-0.0181-4.62-0.022-7.58-0.147-15.1-1.01-22.6-0.245-3.14 0.357-6.06 0.831-9.16 0.719-8.22 0.719-8.22-1-16-0.0956-1.87-0.126-3.74-0.126-5.62-0.00261-1.2-0.00522-2.4-0.0079-3.64 0.00216-1.35 0.00442-2.69 0.00676-4.04-0.00115-1.42-0.00274-2.84-0.00473-4.26-0.00419-3.92-0.0021-7.84 9.86e-4 -11.8 0.00225-4.22-0.00123-8.44-0.00398-12.7-0.00446-8.28-0.00348-16.6-5.87e-4 -24.8 0.00226-6.74 0.00257-13.5 0.00148-20.2-1.53e-4 -0.958-3.06e-4 -1.92-4.64e-4 -2.9-3.2e-4 -1.95-6.44e-4 -3.89-9.73e-4 -5.84-0.00286-18.3 4.32e-4 -36.5 0.0058-54.8 0.00446-15.7 0.0037-31.3-9.19e-4 -47-0.00536-18.2-0.00745-36.4-0.00439-54.6 3.19e-4 -1.94 6.33e-4 -3.89 9.43e-4 -5.83 1.54e-4 -0.956 3.09e-4 -1.91 4.68e-4 -2.9 8.61e-4 -6.72-5.89e-4 -13.4-0.00295-20.1-0.00282-8.2-0.00202-16.4 0.00328-24.6 0.00261-4.18 0.00368-8.36 3.51e-4 -12.5-0.0214-29.2-0.0214-29.2 0.902-42 0.473-7.82 0.401-15.7 0.42-23.5 0.00797-1.91 0.0164-3.82 0.0251-5.73 0.0179-4.08 0.033-8.15 0.0458-12.2 0.0204-6.46 0.0481-12.9 0.0767-19.4 0.0648-14.9 0.121-29.7 0.176-44.6 0.051-13.6 0.104-27.3 0.165-40.9 0.0281-6.41 0.0518-12.8 0.0719-19.2 0.0135-4 0.0309-7.99 0.0493-12 0.00768-1.84 0.0138-3.68 0.0181-5.52 0.0732-30.1 0.0732-30.1 3.18-35.7 0.367-3.34 0.504-6.65 0.656-10 0.344-3 0.344-3 2.34-6 0.379-1.98 0.379-1.98 0.5-4.06 0.5-3.94 0.5-3.94 2.5-5.94 0.165-1.15 0.33-2.31 0.5-3.5 0.5-3.5 0.5-3.5 2.5-5.5 0.691-1.99 1.36-3.99 2-6 0.33-0.33 0.66-0.66 1-1 0.0619-0.99 0.124-1.98 0.188-3 0.55-4.39 2.79-7.3 5.31-10.8 1.82-2.62 3.17-5.27 4.5-8.16h2c0.289-1.11 0.577-2.23 0.875-3.38 1.12-3.62 1.12-3.62 3.12-5.62 0.433-1.18 0.433-1.18 0.875-2.38 1.27-2.95 2.87-4.37 5.12-6.62 0.688-1.66 1.36-3.32 2-5 1.5-1.81 1.5-1.81 3-3h2c0.0619-0.557 0.124-1.11 0.188-1.69 1.16-3.29 3.28-4.95 5.81-7.31 0.722-0.763 1.44-1.53 2.19-2.31 1.81-1.69 1.81-1.69 3.81-1.69 0.0619-0.722 0.124-1.44 0.188-2.19 1.35-4.66 4.58-6.98 8.5-9.62 2.31-1.19 2.31-1.19 4.31-1.19 0.33-0.99 0.66-1.98 1-3h2c0.309-0.835 0.309-0.835 0.625-1.69 3.57-6.01 9.94-9.17 16.4-11.3v-2c1.65-0.33 3.3-0.66 5-1v-2c0.701-0.375 1.4-0.75 2.12-1.14 4.47-2.41 8.9-4.82 13.2-7.55 8.38-5.31 8.38-5.31 13.7-5.31v-2c0.615-0.121 1.23-0.242 1.86-0.367 0.808-0.168 1.62-0.335 2.45-0.508 1.2-0.244 1.2-0.244 2.43-0.492 2.51-0.578 2.51-0.578 5.26-2.63 2.33-0.694 4.66-1.36 7-2 0.66-0.33 1.32-0.66 2-1 2.23-0.272 4.47-0.445 6.71-0.621 2.3-0.261 2.3-0.261 4.23-1.38 3.35-1.62 6.83-1.45 10.5-1.65 2.8-0.185 2.8-0.185 5.56-2.34 2.12-0.278 2.12-0.278 4.63-0.317 1.43-0.0292 1.43-0.0292 2.9-0.0589 1.58-0.0167 1.58-0.0167 3.18-0.0337 1.67-0.0286 1.67-0.0286 3.37-0.0577 3.73-0.0604 7.46-0.105 11.2-0.15 1.99-0.0281 3.97-0.0563 5.96-0.085 30.4-0.434 60.8-0.446 91.3-0.434zm-292 186 1 3zm-1 196v16h1v-16h-1zm1e3 195 1 3zm0 9v5h1v-5h-1zm0 28 1 3zm0 12 1 4zm-1e3 147v7h1v-7h-1zm1 169 1 2zm993 19 1 3zm-978 46 1 2zm13 26 1 2z" fill="#FBFCFE"/>
<path transform="translate(992 134)" d="m0 0c0.72-0.00175 1.44-0.00351 2.18-0.00531 2.44-0.0047 4.88-0.00218 7.32 2.34e-4 1.76-0.00187 3.51-0.00417 5.27-0.00687 4.85-0.00615 9.7-0.00598 14.5-0.00481 5.22 2.03e-4 10.4-0.00531 15.7-0.0101 10.2-0.00832 20.5-0.0111 30.7-0.0116 8.32-4.74e-4 16.6-0.00252 24.9-0.0057 23.6-0.00881 47.1-0.0134 70.7-0.0127 1.27 4e-5 2.54 7.99e-5 3.85 1.21e-4 1.91 6.13e-5 1.91 6.13e-5 3.86 1.24e-4 20.6 4.07e-4 41.3-0.00916 61.9-0.0233 21.2-0.0143 42.3-0.0213 63.5-0.0204 11.9 3.33e-4 23.8-0.00244 35.7-0.0132 10.1-0.00908 20.2-0.0113 30.4-0.00449 5.17 0.00328 10.3 0.00327 15.5-0.00535 4.73-0.00781 9.45-0.00649 14.2 0.00228 1.72 0.00155 3.43-3.28e-4 5.15-0.00586 2.32-0.00699 4.64-0.00182 6.96 0.00656 1.29-2.17e-4 2.58-4.35e-4 3.92-6.59e-4 3.1 0.25 3.1 0.25 6.1 2.25 1.94 0.204 3.87 0.408 5.81 0.611 3.81 0.677 7.04 2.42 10.4 4.2 0.694 0.344 1.39 0.687 2.1 1.04 3.79 1.93 6.92 3.79 9.65 7.15v2h2c1.51 1.46 1.51 1.46 3.12 3.38 0.539 0.626 1.08 1.25 1.63 1.9 1.24 1.73 1.24 1.73 1.24 3.73h2c2.02 2.91 3.35 5.52 4 9h2c1.36 4.33 2.69 8.66 4 13 0.335 1.07 0.335 1.07 0.676 2.15 3.33 11.6 2.47 24.5 2.46 36.5 0.00187 1.64 0.00417 3.28 0.00687 4.93 0.00607 4.47 0.00599 8.95 0.00481 13.4-2.05e-4 4.84 0.00533 9.68 0.0101 14.5 0.00828 9.46 0.0111 18.9 0.0116 28.4 4.76e-4 7.69 0.00254 15.4 0.0057 23.1 0.0088 21.8 0.0134 43.7 0.0127 65.5-5.99e-5 1.76-5.99e-5 1.76-1.21e-4 3.56-6.13e-5 1.76-6.13e-5 1.76-1.24e-4 3.57-4.07e-4 19.1 0.00917 38.2 0.0233 57.3 0.0144 19.6 0.0213 39.2 0.0204 58.8-3.32e-4 11 0.00241 22 0.0132 33 0.00911 9.36 0.0113 18.7 0.00449 28.1-0.00326 4.78-0.00333 9.55 0.00535 14.3 0.00787 4.38 0.00643 8.75-0.00228 13.1-0.00153 1.58 2.76e-4 3.16 0.00586 4.74 0.0282 8.53-0.375 16.6-2.26 25-0.186 1.06-0.371 2.13-0.562 3.23-0.144 0.791-0.289 1.58-0.438 2.4-0.144 0.817-0.289 1.63-0.438 2.48-0.186 0.626-0.371 1.25-0.562 1.9-0.99 0.495-0.99 0.495-2 1-0.465 1.9-0.465 1.9-0.625 4.06-0.124 1.3-0.247 2.6-0.375 3.94-0.804 0.227-1.61 0.454-2.44 0.688-0.846 0.433-1.69 0.866-2.56 1.31-0.894 2.55-0.894 2.55-1 5h-2c-0.206 0.681-0.412 1.36-0.625 2.06-1.8 3.85-4.28 7.02-7.38 9.94h-2v2c-3.3 1.72-6.33 3.29-10 4v2c-5.72 1.54-11.4 2.59-17.3 3.44-2.69 0.43-2.69 0.43-4.79 1.6-10.4 5.17-28.7-1.62-38.9-5.04v-2c-0.701-0.247-1.4-0.495-2.12-0.75-5.62-2.44-9.64-5.9-13.9-10.2-0.802-0.602-1.6-1.2-2.43-1.82-4.28-3.63-6.71-8.41-9.57-13.2-0.418-0.623-0.835-1.25-1.27-1.89-2.84-4.37-3.59-8.7-4.34-13.8-0.278-2.37-0.278-2.37-1.39-4.36-0.985-7.06-1.14-14.2-1.12-21.3-8.54e-4 -0.973-0.00171-1.95-0.00259-2.95-0.00163-3.23 0.00383-6.45 0.00932-9.68 2.82e-4 -2.33 1.23e-4 -4.65-4.43e-4 -6.98-2.86e-4 -6.29 0.00558-12.6 0.0126-18.9 0.00626-6.58 0.00684-13.2 0.00803-19.8 0.00259-11 0.00899-22.1 0.0179-33.1 0.00919-11.4 0.0163-22.7 0.0205-34.1 2.63e-4 -0.702 5.25e-4 -1.4 7.96e-4 -2.13 0.00131-3.52 0.00257-7.04 0.00381-10.6 0.0104-29.2 0.028-58.4 0.0503-87.5-1.65-0.33-3.3-0.66-5-1-0.103 0.598-0.206 1.2-0.312 1.81-0.786 2.5-1.66 3.56-3.69 5.19h-2v2h-3c-0.66 1.32-1.32 2.64-2 4h-2c-0.33 0.99-0.66 1.98-1 3-0.701 0.557-1.4 1.11-2.12 1.69-2.38 1.91-4.11 3.64-6.06 5.94-4.33 5.07-9.07 9.7-13.8 14.4-0.552 0.592-1.1 1.18-1.67 1.79-1.33 1.21-1.33 1.21-3.33 1.21v2c-1.88 2.13-1.88 2.13-4 4h-2c-0.33 0.99-0.66 1.98-1 3h-2c-0.227 0.557-0.454 1.11-0.688 1.69-1.69 2.97-3.78 5.03-6.31 7.31h-2c-0.268 0.598-0.536 1.2-0.812 1.81-1.19 2.19-2.28 3.6-4.19 5.19h-2v2c-1.88 2.13-1.88 2.13-4 4h-2c-0.33 0.99-0.66 1.98-1 3h-2c-0.227 0.557-0.454 1.11-0.688 1.69-1.69 2.98-3.84 4.95-6.31 7.31-0.787 0.818-0.787 0.818-1.59 1.65-1.43 1.49-2.92 2.92-4.41 4.35h-2c-0.246 0.587-0.492 1.17-0.746 1.78-1.45 2.57-3.04 3.94-5.32 5.79-3.27 2.62-3.27 2.62-4.94 6.44-1.57 1.54-1.57 1.54-3.56 3.19-3.83 3.23-7.32 6.68-10.8 10.3-1.66 1.5-1.66 1.5-3.66 1.5-0.227 0.557-0.454 1.11-0.688 1.69-1.69 2.97-3.84 4.96-6.31 7.31-2.92 2.9-5.82 5.83-8.7 8.77-1.33 1.35-2.66 2.7-3.99 4.04-0.676 0.693-1.35 1.39-2.05 2.1-0.648 0.654-1.3 1.31-1.96 1.98-0.586 0.597-1.17 1.19-1.78 1.81-1.52 1.3-1.52 1.3-3.52 1.3v3c-2.39 2.66-4.88 4.91-7.69 7.12-2.5 1.84-2.5 1.84-4.31 4.88h-3v3c-2.79 3.17-5.27 5.14-9 7-0.33 0.99-0.66 1.98-1 3-0.701 0.557-1.4 1.11-2.12 1.69-3.23 2.6-5.63 5.49-8.23 8.7-1.65 1.61-1.65 1.61-4.65 1.61v3h-2v2c-1.57 1.55-1.57 1.55-3.69 3.31-5.16 4.4-9.68 9.01-13.9 14.3-1.43 1.36-1.43 1.36-4.43 1.36-0.0619 0.557-0.124 1.11-0.188 1.69-1.16 3.3-3.27 4.94-5.81 7.31-0.887 0.928-1.77 1.86-2.69 2.81-2.31 2.19-2.31 2.19-4.31 2.19v2c-1.88 2.12-1.88 2.12-4 4h-2c-0.33 0.99-0.66 1.98-1 3-0.701 0.557-1.4 1.11-2.12 1.69-2.44 1.96-4.19 3.76-6.19 6.12-3.03 3.55-6.3 6.53-9.85 9.54-2.06 1.77-2.06 1.77-4.34 4.65-2.04 2.45-3.91 4.28-6.31 6.31-3.92 3.31-7.17 7-10.4 11-1.76 1.72-1.76 1.72-4.76 1.72-0.165 0.681-0.33 1.36-0.5 2.06-1.88 3.68-4.33 5.61-7.46 8.23-3.51 2.94-6.5 5.9-9.04 9.7h-3c-0.186 0.701-0.371 1.4-0.562 2.12-1.96 3.92-4.84 6.41-8.44 8.88h-2c-0.247 0.742-0.495 1.48-0.75 2.25-1.36 3-2.71 4.67-5.25 6.75h-3c-0.227 0.784-0.454 1.57-0.688 2.38-1.66 3.31-2.95 3.37-6.31 4.62-1.13 1.83-1.13 1.83-2 4-2.8 3.99-6.15 6.89-9.84 10-3.1 2.84-5.73 6.02-8.4 9.26-1.76 1.72-1.76 1.72-4.76 1.72v3c-2.25 2.44-2.25 2.44-5 5-0.722 0.763-1.44 1.53-2.19 2.31-1.81 1.69-1.81 1.69-3.81 1.69-0.33 0.99-0.66 1.98-1 3h-3c-0.34 0.804-0.34 0.804-0.688 1.62-1.77 3.2-3.85 5.67-6.31 8.38h-2c-0.33 0.99-0.66 1.98-1 3-0.701 0.557-1.4 1.11-2.12 1.69-3.23 2.6-5.63 5.49-8.23 8.7-1.65 1.61-1.65 1.61-4.65 1.61-0.165 0.681-0.33 1.36-0.5 2.06-1.88 3.68-4.33 5.62-7.47 8.24-3.4 2.84-6.38 5.83-9.03 9.38-2.23 2.58-3.89 3.09-7 4.31-1.13 2.02-1.13 2.02-2 4-0.99 0.33-1.98 0.66-3 1-0.33 0.66-0.66 1.32-1 2-0.33 0.66-0.66 1.32-1 2-0.99 0.33-1.98 0.66-3 1-0.33 0.66-0.66 1.32-1 2-0.33 0.66-0.66 1.32-1 2-0.99 0.33-1.98 0.66-3 1-0.289 0.578-0.577 1.16-0.875 1.75-1.52 3.04-3.67 4.91-6.12 7.25-0.784 0.804-1.57 1.61-2.38 2.44-2.03 1.99-4.07 3.81-6.25 5.62-2.53 2.12-4.42 4.27-6.38 6.94h-2c-0.247 0.742-0.495 1.48-0.75 2.25-1.36 3-2.71 4.67-5.25 6.75h-3c-0.247 0.804-0.495 1.61-0.75 2.44-0.413 0.846-0.825 1.69-1.25 2.56-1.32 0.372-2.66 0.706-4 1-1.09 1.93-1.09 1.93-2 4-0.99 0.66-1.98 1.32-3 2-1.19 2.05-1.19 2.05-2 4h-3v3h-2v2c-1.57 1.55-1.57 1.55-3.69 3.31-3.89 3.3-7.52 6.76-11 10.5-1.31 1.19-1.31 1.19-3.31 1.19-0.227 0.722-0.454 1.44-0.688 2.19-1.59 3.41-3.46 5.37-6.31 7.81-0.722 0.165-1.44 0.33-2.19 0.5-0.598 0.165-1.2 0.33-1.81 0.5-0.712 1.65-1.37 3.32-2 5-1.94 2.31-1.94 2.31-4 4h-3c-0.237 0.562-0.474 1.12-0.719 1.7-1.57 2.82-3.5 4.77-5.78 7.06-0.887 0.889-1.77 1.78-2.69 2.7-1.39 1.38-1.39 1.38-2.81 2.79-0.928 0.936-1.86 1.87-2.81 2.84-0.887 0.884-1.77 1.77-2.69 2.68-0.815 0.812-1.63 1.62-2.47 2.46-2.03 1.77-2.03 1.77-4.03 1.77-0.402 0.959-0.402 0.959-0.812 1.94-1.19 2.06-1.19 2.06-4.19 3.06-0.33 0.66-0.66 1.32-1 2-0.33 0.66-0.66 1.32-1 2-0.99 0.33-1.98 0.66-3 1-0.33 0.66-0.66 1.32-1 2-0.33 0.66-0.66 1.32-1 2-0.99 0.33-1.98 0.66-3 1-0.7 1.32-1.36 2.65-2 4-3.55 4.08-7.6 7.86-12 11h-2c-0.371 0.928-0.371 0.928-0.75 1.88-1.51 2.57-2.61 2.84-5.25 4.12-0.846 0.866-1.69 1.73-2.56 2.62-2.44 2.38-2.44 2.38-5.44 2.38-0.33 0.99-0.66 1.98-1 3-2.71 1.35-5.01 1.07-8 1-0.33 0.99-0.66 1.98-1 3h-8v2c-3.58 0.0581-7.17 0.0936-10.8 0.125-1.02 0.0168-2.03 0.0335-3.08 0.0508-0.98 0.00645-1.96 0.0129-2.97 0.0195-1.35 0.0157-1.35 0.0157-2.73 0.0317-2.63-0.242-4.19-0.946-6.47-2.23-2.66-0.515-5.29-0.729-8-1v-2l-3.12-0.812c-3.52-0.997-6.64-2.45-9.88-4.19v-2c-0.742-0.289-1.49-0.578-2.25-0.875-7.05-2.88-7.05-2.88-9.75-6.12v-2h-2c-1.84-2.2-1.84-2.2-3.94-5.12-0.69-0.951-1.38-1.9-2.09-2.88-1.92-2.91-3.46-5.85-4.97-8.99-0.495-0.742-0.99-1.48-1.5-2.25-1.87-3.42-2.82-6.89-3.85-10.6-0.458-2.07-0.458-2.07-1.65-3.11-0.253-4.14-0.185-8.29-0.188-12.4-0.0122-1.17-0.0245-2.34-0.0371-3.55-0.00193-1.12-0.00387-2.23-0.00586-3.38-0.00411-1.03-0.00822-2.06-0.0125-3.12 0.243-2.51 0.243-2.51 2.24-4.51 0.237-1.94 0.237-1.94 0.25-4.12 0.498-5.64 3.22-8.66 6.75-12.9 0.598-0.969 1.2-1.94 1.81-2.94 2.71-3.8 5.9-6.88 9.26-10.1 1.98-1.81 1.98-1.81 2.93-3.95h2c0.33-0.99 0.66-1.98 1-3 4.32-4.77 4.32-4.77 8-6 0.433-0.866 0.433-0.866 0.875-1.75 1.52-3.04 3.61-4.99 6.12-7.25h2c0.402-0.959 0.402-0.959 0.812-1.94 1.19-2.06 1.19-2.06 4.19-3.06 0.433-0.866 0.433-0.866 0.875-1.75 1.52-3.04 3.67-4.9 6.12-7.25 0.787-0.818 0.787-0.818 1.59-1.65 1.43-1.49 2.92-2.92 4.41-4.35h2c0.34-0.835 0.34-0.835 0.688-1.69 2.27-4 4.93-6.85 9.31-8.31 0.289-0.578 0.577-1.15 0.875-1.75 1.52-3.04 3.67-4.91 6.12-7.25 0.763-0.784 1.53-1.57 2.31-2.38 2.13-2.09 4.29-4.01 6.56-5.94 3.53-3.05 6.57-6.34 9.59-9.89 1.75-2.05 3.52-4.01 5.54-5.8h2c0.33-0.99 0.66-1.98 1-3 4.32-4.77 4.32-4.77 8-6 0.289-0.578 0.577-1.15 0.875-1.75 1.52-3.04 3.67-4.91 6.12-7.25 0.887-0.928 1.77-1.86 2.69-2.81 2.31-2.19 2.31-2.19 4.31-2.19 0.34-0.804 0.34-0.804 0.688-1.62 2.64-4.77 5.8-8.12 10.2-11.2 5.39-3.87 9.37-8.77 13.3-14.1 2.04-2.32 2.93-2.39 5.81-3.06 1.28-1.98 1.28-1.98 2-4h2c0.34-0.835 0.34-0.835 0.688-1.69 1.68-2.96 3.85-4.97 6.31-7.31 0.835-0.897 0.835-0.897 1.69-1.81 1.31-1.19 1.31-1.19 3.31-1.19 0.33-0.99 0.66-1.98 1-3h2c0.247-0.572 0.495-1.14 0.75-1.73 1.44-2.62 3.13-4.41 5.25-6.52 1.05-1.06 1.05-1.06 2.12-2.14 1.88-1.61 1.88-1.61 3.88-1.61 0.255-0.58 0.51-1.16 0.773-1.76 1.35-2.47 2.86-4.14 4.85-6.13 0.706-0.709 1.41-1.42 2.14-2.15 0.737-0.73 1.47-1.46 2.23-2.21 0.737-0.745 1.47-1.49 2.23-2.26 1.06-1.06 1.06-1.06 2.14-2.13 0.647-0.645 1.29-1.29 1.96-1.95 1.66-1.41 1.66-1.41 3.66-1.41 0.33-0.99 0.66-1.98 1-3h2v-2h2c0.371-0.835 0.371-0.835 0.75-1.69 2.23-4.13 5.07-7.23 8.62-10.2 6.05-5.16 11.5-10.9 17.1-16.5 0.495-0.5 0.989-1 1.5-1.51 0.776-0.839 0.776-0.839 1.57-1.69 1.43-1.31 1.43-1.31 3.43-1.31 0.34-0.835 0.34-0.835 0.688-1.69 1.69-2.98 3.84-4.95 6.31-7.31 0.787-0.818 0.787-0.818 1.59-1.65 1.43-1.49 2.92-2.92 4.41-4.35h2c0.34-0.835 0.34-0.835 0.688-1.69 2.27-4 4.93-6.85 9.31-8.31 0.309-0.825 0.619-1.65 0.938-2.5 0.351-0.825 0.701-1.65 1.06-2.5 1.32-0.372 2.66-0.706 4-1 0.704-1.31 1.36-2.65 2-4 2.62-2.84 5.41-5.35 8.38-7.81 3.35-2.83 6.15-5.96 8.99-9.3 2.09-2.42 4.34-4.66 6.63-6.89 0.557-0.598 1.11-1.2 1.69-1.81 1.31-1.19 1.31-1.19 3.31-1.19 0.34-0.835 0.34-0.835 0.688-1.69 1.69-2.97 3.78-5.03 6.31-7.31h2c0.66-1.32 1.32-2.64 2-4h2v-2c1.62-1.71 3.3-3.37 5-5 1.08-1.14 1.08-1.14 2.19-2.31 1.81-1.69 1.81-1.69 3.81-1.69 0.165-0.681 0.33-1.36 0.5-2.06 2.22-4.35 5.79-6.84 9.5-9.94 3.47-3.31 6.52-6.78 9.47-10.5 1.8-1.72 3.14-1.92 5.53-2.45 1.28-1.98 1.28-1.98 2-4h2c0.268-0.639 0.536-1.28 0.812-1.94 1.19-2.06 1.19-2.06 4.19-3.06 0.34-1.05 0.34-1.05 0.688-2.12 2.17-4.76 6.66-8.68 11.4-10.8 2.39-1.33 2.71-2.6 3.87-5.04 1.39-1.53 2.83-3 4.31-4.44 0.759-0.741 1.52-1.48 2.3-2.25 0.788-0.764 1.58-1.53 2.39-2.32 1.67-1.67 3.33-3.33 5-5 20-20 20-20 22.6-22.6 1.9-1.91 3.79-3.82 5.67-5.75 1.14-1.16 2.28-2.32 3.43-3.48 0.581-0.597 1.16-1.19 1.76-1.81 1.48-1.5 3.01-2.94 4.55-4.38h2c0.34-0.835 0.34-0.835 0.688-1.69 2.27-4 4.93-6.85 9.31-8.31 0.289-0.577 0.577-1.15 0.875-1.75 1.84-3.69 4.59-6.51 8.31-8.31 2.34-1.21 2.85-2.54 3.81-4.94h2c0.34-0.804 0.34-0.804 0.688-1.62 3.16-5.72 7.21-9.27 12.5-12.9 1.97-1.66 2.67-3.19 3.77-5.49 1.33-0.333 2.67-0.667 4-1 0.294-0.592 0.588-1.18 0.891-1.79 1.28-2.55 2.79-4.05 4.86-6.02 2.57-2.49 4.98-4.98 7.25-7.75 2.75-3.3 5.84-6.03 9.11-8.8 3.05-2.63 5.84-5.5 8.58-8.45 1.31-1.19 1.31-1.19 3.31-1.19 0.206-0.722 0.412-1.44 0.625-2.19 1.85-3.78 3.98-5.34 7.38-7.81h2c0.247-0.619 0.495-1.24 0.75-1.88 1.25-2.12 1.25-2.12 3.31-3.12 0.639-0.33 1.28-0.66 1.94-1 0.124-0.598 0.247-1.2 0.375-1.81 1.03-3.61 3.65-5 6.62-7.19h2c0.33-1.32 0.66-2.64 1-4 0.619-0.0619 1.24-0.124 1.88-0.188 0.701-0.268 1.4-0.536 2.12-0.812 0.247-0.701 0.495-1.4 0.75-2.12 1.64-3.78 4.11-5.58 7.23-8.19 3.15-2.64 5.96-5.59 8.8-8.55 0.94-0.965 0.94-0.965 1.9-1.95 0.581-0.605 1.16-1.21 1.76-1.83 1.55-1.36 1.55-1.36 3.55-1.36 0.227-0.557 0.454-1.11 0.688-1.69 1.68-2.96 3.85-4.97 6.31-7.31 0.557-0.598 1.11-1.2 1.69-1.81 1.31-1.19 1.31-1.19 3.31-1.19 0.124-0.784 0.247-1.57 0.375-2.38 0.625-2.63 0.625-2.63 2.62-4.62h3v-7c-1.25 0.00369-2.49 0.00737-3.78 0.0112-29.6 0.0868-59.3 0.153-88.9 0.193-3.66 5e-3 -7.31 0.0102-11 0.0155-1.09 0.00157-1.09 0.00157-2.21 0.00318-11.8 0.0174-23.5 0.0489-35.3 0.0857-12.1 0.0375-24.2 0.0597-36.2 0.0677-6.78 0.00497-13.6 0.0168-20.3 0.0466-6.39 0.0273-12.8 0.0355-19.2 0.0295-2.33 0.00109-4.67 0.00894-7 0.0244-32.3 0.203-32.3 0.203-44.1-7.48-1.98-0.711-3.98-1.39-6-2v-2c-0.66-0.206-1.32-0.412-2-0.625-4.67-2.14-9.91-4.86-12-9.73-0.322-0.871-0.645-1.74-0.977-2.64-1.11-1.84-2.26-3.65-3.44-5.44-9.43-14.6-12.3-29.3-10.2-46.7 0.625-2.87 0.625-2.87 1.62-4.81 1.06-2.2 1.26-3.77 1.5-6.19 0.5-3.88 0.5-3.88 2.5-5.88 0.464-1.52 0.464-1.52 0.938-3.06 0.351-0.969 0.701-1.94 1.06-2.94 0.99-0.33 1.98-0.66 3-1 1.09-1.93 1.09-1.93 2-4 0.66-0.66 1.32-1.32 2-2 0.309-1.36 0.309-1.36 0.625-2.75 2.58-6.09 8.89-9.19 14.5-12.2 1.33-0.726 2.63-1.5 3.92-2.29 4.92-2.96 9.26-4.48 14.9-5.36 8.15-1.49 8.15-1.49 9.74-1.49zm342 250 1 3zm0 10v16h1v-16h-1zm0 203 1 2zm-682 313 1 2z" fill="#FBFCFE"/>
<path transform="translate(957,252)" d="m0 0 2 1z" fill="#020202"/>
</svg>
